<svg xmlns="http://www.w3.org/2000/svg" version="1.1" xmlns:xlink="http://www.w3.org/1999/xlink" xmlns:svgjs="http://svgjs.dev/svgjs" width="1500" height="1500" viewBox="0 0 1500 1500"><rect width="1500" height="1500" fill="#dbefed"></rect><g transform="matrix(0.6666666666666666,0,0,0.6666666666666666,249.39393939393938,435.99032258064517)"><svg viewBox="0 0 396 248" data-background-color="#dbefed" preserveAspectRatio="xMidYMid meet" height="939" width="1500" xmlns="http://www.w3.org/2000/svg" xmlns:xlink="http://www.w3.org/1999/xlink"><g id="tight-bounds" transform="matrix(1,0,0,1,0.2400000000000091,0.4000000000000057)"><svg viewBox="0 0 395.52 247.2" height="247.2" width="395.52"><g><svg></svg></g><g><svg viewBox="0 0 395.52 247.2" height="247.2" width="395.52"><mask id="c9702d62-f134-44c1-8a4f-b7b6cc6113cd"><rect width="640" height="400" fill="white"></rect><g transform="matrix(1,0,0,1,39.55199999999999,84.3243113772455)"><svg viewBox="0 0 316.416 78.55137724550899" height="78.55137724550899" width="316.416"><g><svg viewBox="0 0 316.416 78.55137724550899" height="78.55137724550899" width="316.416"><g><svg viewBox="0 0 316.416 78.55137724550899" height="78.55137724550899" width="316.416"><g><svg viewBox="0 0 316.416 78.55137724550899" height="78.55137724550899" width="316.416"><g id="SvgjsG5072"><svg viewBox="0 0 316.416 78.55137724550899" height="78.55137724550899" width="316.416" id="SvgjsSvg5071"><g><svg viewBox="0 0 316.416 78.55137724550899" height="78.55137724550899" width="316.416"><g transform="matrix(1,0,0,1,0,0)"><svg width="316.416" viewBox="-5.5 -43.3 201.39 50.75" height="78.55137724550899" data-palette-color="#cb1106"><path d="M6.6 0.2L6.6 0.2Q4.75 0.2 3.23-1.3 1.7-2.8 1.7-6.05L1.7-6.05Q1.7-9.3 2.33-12.33 2.95-15.35 3.78-18.15 4.6-20.95 5.23-23.48 5.85-26 5.85-28.25L5.85-28.25Q5.1-28.55 4.45-28.55L4.45-28.55Q3.55-28.55 2.95-28 2.35-27.45 2-26.5L2-26.5 1.5-26.65Q1.55-30.15 2.53-32.23 3.5-34.3 5.05-35.2 6.6-36.1 8.25-36.1L8.25-36.1Q10.75-36.1 12.73-34.48 14.7-32.85 16.28-30.05 17.85-27.25 19.03-23.73 20.2-20.2 21.05-16.38 21.9-12.55 22.4-8.85L22.4-8.85Q22.7-10.85 23.03-13.75 23.35-16.65 23.6-19.85 23.85-23.05 23.85-25.95L23.85-25.95Q23.85-28.05 23.7-29.78 23.55-31.5 23.2-32.75L23.2-32.75 23.2-33.15Q24.5-34.6 25.83-35.35 27.15-36.1 28.3-36.1L28.3-36.1Q30-36.1 31.13-34.63 32.25-33.15 32.25-30.45L32.25-30.45Q32.25-28.45 31.7-25.58 31.15-22.7 30.4-19.45 29.65-16.2 29.08-13.08 28.5-9.95 28.45-7.45L28.45-7.45Q28.45-6.75 28.55-5.95 28.65-5.15 29.6-5.15L29.6-5.15Q29.65-4.95 29.65-4.85 29.65-4.75 29.65-4.65L29.65-4.65Q29.6-2.75 28.1-1.28 26.6 0.2 24.1 0.2L24.1 0.2Q22.15 0.2 20.8-0.8 19.45-1.8 18.55-3.48 17.65-5.15 17.03-7.28 16.4-9.4 15.85-11.65L15.85-11.65Q14.85-15.55 13.78-19.07 12.7-22.6 10.9-25.55L10.9-25.55Q11-23.55 10.75-21.18 10.5-18.8 10.23-16.38 9.95-13.95 9.95-11.7L9.95-11.7Q9.95-9.7 10.3-8.03 10.65-6.35 11.55-5.05L11.55-5.05Q11.55-2.6 10-1.2 8.45 0.2 6.6 0.2ZM54.45 0.25L54.45 0.25Q52.7 0.25 51.4-0.9 50.1-2.05 50.1-4.65L50.1-4.65Q50.1-4.9 50.1-5.15 50.1-5.4 50.15-5.65L50.15-5.65Q48.65-2.65 46.77-1.23 44.9 0.2 43 0.2L43 0.2Q41.25 0.2 39.7-1.03 38.15-2.25 37.2-4.65 36.25-7.05 36.25-10.45L36.25-10.45Q36.25-13.95 37.22-16.7 38.2-19.45 39.8-21.35 41.4-23.25 43.3-24.23 45.2-25.2 47-25.2L47-25.2Q49-25.2 50.6-23.98 52.2-22.75 52.8-20.1L52.8-20.1Q52.95-20.95 53.02-21.65 53.1-22.35 53.1-22.6L53.1-22.6Q53.15-23.95 54.47-24.6 55.8-25.25 57.4-25.25L57.4-25.25Q58.8-25.25 60.05-24.7 61.3-24.15 61.75-22.85L61.75-22.85 61.85-22.55Q61.25-21.2 60.65-19.3 60.05-17.4 59.55-15.33 59.05-13.25 58.75-11.28 58.45-9.3 58.45-7.8L58.45-7.8Q58.45-6.15 58.8-5.53 59.15-4.9 59.65-4.9L59.65-4.9Q60.5-4.9 61.2-6.1L61.2-6.1 61.6-5.9Q61.6-4.2 60.5-2.8 59.4-1.4 57.75-0.58 56.1 0.25 54.45 0.25ZM46.3-6.1L46.3-6.1Q47.6-6.1 49.17-8.43 50.75-10.75 51.9-15.1L51.9-15.1Q52-15.55 52.1-15.98 52.2-16.4 52.25-16.8L52.25-16.8Q51.45-18.65 50.57-19.43 49.7-20.2 48.85-20.2L48.85-20.2Q47.6-20.2 46.52-18.88 45.45-17.55 44.77-15.55 44.1-13.55 44.1-11.55L44.1-11.55Q44.1-8.8 44.72-7.45 45.35-6.1 46.3-6.1ZM71.55 0.2L71.55 0.2Q69.95 0.2 68.52-0.53 67.1-1.25 66.22-2.8 65.35-4.35 65.35-6.75L65.35-6.75Q65.35-8.05 65.6-10.15 65.85-12.25 66.27-14.75 66.7-17.25 67.15-19.75L67.15-19.75Q66.15-19.7 65.22-19.55 64.3-19.4 63.4-19.2L63.4-19.2 63.3-19.55Q64.3-20.75 65.4-21.6 66.5-22.45 67.7-23L67.7-23Q68.35-26.3 68.8-28.73 69.25-31.15 69.25-31.6L69.25-31.6Q69.25-32.45 70.57-33 71.9-33.55 73.55-33.55L73.55-33.55Q75-33.55 76.27-33 77.55-32.45 78-31.15L78-31.15Q77.7-30.85 77.15-28.93 76.6-27 76-24.25L76-24.25Q76.95-24.2 77.95-24.15 78.95-24.1 80-24L80-24Q80.1-23.7 80.15-23.35 80.2-23 80.2-22.6L80.2-22.6Q80.2-21.85 79.97-20.98 79.75-20.1 79.45-19.4L79.45-19.4Q78.25-19.5 77.2-19.63 76.15-19.75 75.15-19.8L75.15-19.8Q74.75-17.65 74.42-15.5 74.1-13.35 73.92-11.6 73.75-9.85 73.75-8.85L73.75-8.85Q73.75-6.75 74.52-6.05 75.3-5.35 76.4-5.35L76.4-5.35Q77.4-5.35 78.2-5.75 79-6.15 79.35-6.7L79.35-6.7 79.85-6.55Q79.55-4.5 78.25-2.98 76.95-1.45 75.15-0.63 73.35 0.2 71.55 0.2ZM90.74 0.3L90.74 0.3Q87.39 0.3 85.22-0.85 83.04-2 81.99-3.8 80.94-5.6 80.94-7.5L80.94-7.5Q80.94-9.35 81.84-11.03 82.74-12.7 84.42-13.8 86.09-14.9 88.39-14.9L88.39-14.9Q88.34-14.45 88.34-14.08 88.34-13.7 88.34-13.7L88.34-13.7Q88.34-10.35 88.99-8.43 89.64-6.5 90.64-5.68 91.64-4.85 92.69-4.85L92.69-4.85Q94.29-4.85 95.54-6.13 96.79-7.4 96.79-9.1L96.79-9.1Q96.79-11 95.17-12.45 93.54-13.9 91.04-15.65L91.04-15.65Q89.64-16.7 88.07-18.03 86.49-19.35 85.39-21.18 84.29-23 84.29-25.5L84.29-25.5Q84.29-28.1 85.52-30.1 86.74-32.1 88.77-33.48 90.79-34.85 93.22-35.58 95.64-36.3 98.04-36.3L98.04-36.3Q100.99-36.3 102.89-35.35 104.79-34.4 105.74-32.9 106.69-31.4 106.69-29.8L106.69-29.8Q106.69-28.3 105.87-26.93 105.04-25.55 103.44-24.7 101.84-23.85 99.49-23.85L99.49-23.85Q99.64-24.55 99.69-25.13 99.74-25.7 99.74-26.15L99.74-26.15Q99.74-28.65 98.67-29.73 97.59-30.8 96.29-30.8L96.29-30.8Q95.04-30.8 93.89-29.88 92.74-28.95 92.74-26.9L92.74-26.9Q92.74-25.15 93.67-23.9 94.59-22.65 96.07-21.7 97.54-20.75 99.19-19.85L99.19-19.85Q100.89-18.95 102.47-17.88 104.04-16.8 105.09-15.35 106.14-13.9 106.14-11.7L106.14-11.7Q106.14-9.4 104.89-7.23 103.64-5.05 101.49-3.38 99.34-1.7 96.57-0.7 93.79 0.3 90.74 0.3ZM120.14 0.35L120.14 0.35Q116.39 0.35 113.94-1.15 111.49-2.65 110.32-5.13 109.14-7.6 109.14-10.4L109.14-10.4Q109.14-13.05 110.12-15.7 111.09-18.35 112.97-20.53 114.84-22.7 117.54-24.03 120.24-25.35 123.74-25.35L123.74-25.35Q127.49-25.35 129.92-23.83 132.34-22.3 133.52-19.8 134.69-17.3 134.69-14.45L134.69-14.45Q134.69-11.85 133.74-9.22 132.79-6.6 130.92-4.42 129.04-2.25 126.34-0.95 123.64 0.35 120.14 0.35ZM121.49-3.9L121.49-3.9Q122.84-3.9 123.74-5.3 124.64-6.7 125.09-8.88 125.54-11.05 125.54-13.3L125.54-13.3Q125.54-15.3 125.17-17.07 124.79-18.85 124.04-19.98 123.29-21.1 122.09-21.1L122.09-21.1Q120.79-21.1 119.87-19.7 118.94-18.3 118.49-16.15 118.04-14 118.04-11.7L118.04-11.7Q118.04-9.7 118.42-7.93 118.79-6.15 119.54-5.03 120.29-3.9 121.49-3.9ZM143.44 0.15L143.44 0.15Q141.59 0.15 140.09-1.33 138.59-2.8 138.59-5.45L138.59-5.45Q138.59-6.75 138.94-8.4 139.29-10.05 139.71-11.75 140.14-13.45 140.49-14.95 140.84-16.45 140.84-17.4L140.84-17.4Q140.84-18.4 140.44-18.98 140.04-19.55 139.39-19.55L139.39-19.55Q138.54-19.55 137.54-18.55L137.54-18.55 137.24-18.75Q137.19-19.55 137.59-20.65 137.99-21.75 138.81-22.78 139.64-23.8 140.94-24.5 142.24-25.2 144.04-25.2L144.04-25.2Q146.69-25.2 147.96-23.68 149.24-22.15 149.24-19.95L149.24-19.95Q149.24-19.15 149.09-18.4L149.09-18.4Q150.14-19.95 151.69-21.53 153.24-23.1 155.11-24.15 156.99-25.2 158.99-25.2L158.99-25.2Q161.34-25.2 162.19-23.7 163.04-22.2 163.04-19.95L163.04-19.95Q163.04-17.85 162.59-15.45 162.14-13.05 161.69-10.83 161.24-8.6 161.24-7.1L161.24-7.1Q161.24-5.1 162.39-5.1L162.39-5.1Q162.99-5.1 163.44-5.48 163.89-5.85 164.04-6.2L164.04-6.2 164.39-6.05Q164.39-4.2 163.36-2.8 162.34-1.4 160.79-0.63 159.24 0.15 157.64 0.15L157.64 0.15Q155.69 0.15 154.19-1.2 152.69-2.55 152.69-5.6L152.69-5.6Q152.69-7.4 153.16-9.5 153.64-11.6 154.09-13.55 154.54-15.5 154.54-16.75L154.54-16.75Q154.54-17.5 154.26-17.93 153.99-18.35 153.29-18.35L153.29-18.35Q152.14-18.35 150.76-17.3 149.39-16.25 148.41-14.5 147.44-12.75 147.44-10.65L147.44-10.65Q147.44-9.3 147.76-8.05 148.09-6.8 148.09-5.35L148.09-5.35Q148.09-2.65 146.69-1.25 145.29 0.15 143.44 0.15ZM175.54 0.45L175.54 0.45Q172.44 0.45 170.39-0.4 168.34-1.25 167.34-2.58 166.34-3.9 166.34-5.25L166.34-5.25Q166.34-7.15 168.04-8.63 169.74-10.1 172.64-10.1L172.64-10.1Q172.64-7.55 173.29-6.03 173.94-4.5 174.96-3.85 175.99-3.2 176.94-3.2L176.94-3.2Q178.09-3.2 178.86-3.88 179.64-4.55 179.64-5.55L179.64-5.55Q179.64-6.95 178.19-8 176.74-9.05 174.44-10.35L174.44-10.35Q173.29-11.05 171.94-11.98 170.59-12.9 169.64-14.23 168.69-15.55 168.69-17.4L168.69-17.4Q168.69-19.35 169.81-20.85 170.94-22.35 172.79-23.38 174.64-24.4 176.79-24.93 178.94-25.45 180.99-25.45L180.99-25.45Q184.84-25.45 186.79-23.9 188.74-22.35 188.74-20.6L188.74-20.6Q188.74-19.1 187.24-17.9 185.74-16.7 182.64-16.7L182.64-16.7Q182.69-19.25 181.59-20.43 180.49-21.6 179.24-21.6L179.24-21.6Q178.34-21.6 177.74-21.05 177.14-20.5 177.14-19.45L177.14-19.45Q177.14-18.25 177.91-17.38 178.69-16.5 179.86-15.83 181.04-15.15 182.29-14.55L182.29-14.55Q183.99-13.75 185.49-12.85 186.99-11.95 187.94-10.8 188.89-9.65 188.89-8L188.89-8Q188.89-5.75 187.06-3.83 185.24-1.9 182.19-0.73 179.14 0.45 175.54 0.45Z" opacity="1" transform="matrix(1,0,0,1,0,0)" fill="black" class="wordmark-text-0" id="SvgjsPath5070" stroke-width="13" stroke="black" stroke-linejoin="round"></path></svg></g></svg></g></svg></g></svg></g></svg></g></svg></g></svg></g></mask><g transform="matrix(1,0,0,1,39.55199999999999,84.3243113772455)"><svg viewBox="0 0 316.416 78.55137724550899" height="78.55137724550899" width="316.416"><g><svg viewBox="0 0 316.416 78.55137724550899" height="78.55137724550899" width="316.416"><g><svg viewBox="0 0 316.416 78.55137724550899" height="78.55137724550899" width="316.416"><g><svg viewBox="0 0 316.416 78.55137724550899" height="78.55137724550899" width="316.416"><g id="textblocktransform"><svg viewBox="0 0 316.416 78.55137724550899" height="78.55137724550899" width="316.416" id="textblock"><g><svg viewBox="0 0 316.416 78.55137724550899" height="78.55137724550899" width="316.416"><g transform="matrix(1,0,0,1,0,0)"><svg width="316.416" viewBox="-5.5 -43.3 201.39 50.75" height="78.55137724550899" data-palette-color="#cb1106"><path d="M6.6 0.2L6.6 0.2Q4.75 0.2 3.23-1.3 1.7-2.8 1.7-6.05L1.7-6.05Q1.7-9.3 2.33-12.33 2.95-15.35 3.78-18.15 4.6-20.95 5.23-23.48 5.85-26 5.85-28.25L5.85-28.25Q5.1-28.55 4.45-28.55L4.45-28.55Q3.55-28.55 2.95-28 2.35-27.45 2-26.5L2-26.5 1.5-26.65Q1.55-30.15 2.53-32.23 3.5-34.3 5.05-35.2 6.6-36.1 8.25-36.1L8.25-36.1Q10.75-36.1 12.73-34.48 14.7-32.85 16.28-30.05 17.85-27.25 19.03-23.73 20.2-20.2 21.05-16.38 21.9-12.55 22.4-8.85L22.4-8.85Q22.7-10.85 23.03-13.75 23.35-16.65 23.6-19.85 23.85-23.05 23.85-25.95L23.85-25.95Q23.85-28.05 23.7-29.78 23.55-31.5 23.2-32.75L23.2-32.75 23.2-33.15Q24.5-34.6 25.83-35.35 27.15-36.1 28.3-36.1L28.3-36.1Q30-36.1 31.13-34.63 32.25-33.15 32.25-30.45L32.25-30.45Q32.25-28.45 31.7-25.58 31.15-22.7 30.4-19.45 29.65-16.2 29.08-13.08 28.5-9.95 28.45-7.45L28.45-7.45Q28.45-6.75 28.55-5.95 28.65-5.15 29.6-5.15L29.6-5.15Q29.65-4.95 29.65-4.85 29.65-4.75 29.65-4.65L29.65-4.65Q29.6-2.75 28.1-1.28 26.6 0.2 24.1 0.2L24.1 0.2Q22.15 0.2 20.8-0.8 19.45-1.8 18.55-3.48 17.65-5.15 17.03-7.28 16.4-9.4 15.85-11.65L15.85-11.65Q14.85-15.55 13.78-19.07 12.7-22.6 10.9-25.55L10.9-25.55Q11-23.55 10.75-21.18 10.5-18.8 10.23-16.38 9.95-13.95 9.95-11.7L9.95-11.7Q9.95-9.7 10.3-8.03 10.65-6.35 11.55-5.05L11.55-5.05Q11.55-2.6 10-1.2 8.45 0.2 6.6 0.2ZM54.45 0.25L54.45 0.25Q52.7 0.25 51.4-0.9 50.1-2.05 50.1-4.65L50.1-4.65Q50.1-4.9 50.1-5.15 50.1-5.4 50.15-5.65L50.15-5.65Q48.65-2.65 46.77-1.23 44.9 0.2 43 0.2L43 0.2Q41.25 0.2 39.7-1.03 38.15-2.25 37.2-4.65 36.25-7.05 36.25-10.45L36.25-10.45Q36.25-13.95 37.22-16.7 38.2-19.45 39.8-21.35 41.4-23.25 43.3-24.23 45.2-25.2 47-25.2L47-25.2Q49-25.2 50.6-23.98 52.2-22.75 52.8-20.1L52.8-20.1Q52.95-20.95 53.02-21.65 53.1-22.35 53.1-22.6L53.1-22.6Q53.15-23.95 54.47-24.6 55.8-25.25 57.4-25.25L57.4-25.25Q58.8-25.25 60.05-24.7 61.3-24.15 61.75-22.85L61.75-22.85 61.85-22.55Q61.25-21.2 60.65-19.3 60.05-17.4 59.55-15.33 59.05-13.25 58.75-11.28 58.45-9.3 58.45-7.8L58.45-7.8Q58.45-6.15 58.8-5.53 59.15-4.9 59.65-4.9L59.65-4.9Q60.5-4.9 61.2-6.1L61.2-6.1 61.6-5.9Q61.6-4.2 60.5-2.8 59.4-1.4 57.75-0.58 56.1 0.25 54.45 0.25ZM46.3-6.1L46.3-6.1Q47.6-6.1 49.17-8.43 50.75-10.75 51.9-15.1L51.9-15.1Q52-15.55 52.1-15.98 52.2-16.4 52.25-16.8L52.25-16.8Q51.45-18.65 50.57-19.43 49.7-20.2 48.85-20.2L48.85-20.2Q47.6-20.2 46.52-18.88 45.45-17.55 44.77-15.55 44.1-13.55 44.1-11.55L44.1-11.55Q44.1-8.8 44.72-7.45 45.35-6.1 46.3-6.1ZM71.55 0.2L71.55 0.2Q69.95 0.2 68.52-0.53 67.1-1.25 66.22-2.8 65.35-4.35 65.35-6.75L65.35-6.75Q65.35-8.05 65.6-10.15 65.85-12.25 66.27-14.75 66.7-17.25 67.15-19.75L67.15-19.75Q66.15-19.7 65.22-19.55 64.3-19.4 63.4-19.2L63.4-19.2 63.3-19.55Q64.3-20.75 65.4-21.6 66.5-22.45 67.7-23L67.7-23Q68.35-26.3 68.8-28.73 69.25-31.15 69.25-31.6L69.25-31.6Q69.25-32.45 70.57-33 71.9-33.55 73.55-33.55L73.55-33.55Q75-33.55 76.27-33 77.55-32.45 78-31.15L78-31.15Q77.7-30.85 77.15-28.93 76.6-27 76-24.25L76-24.25Q76.95-24.2 77.95-24.15 78.95-24.1 80-24L80-24Q80.1-23.7 80.15-23.35 80.2-23 80.2-22.6L80.2-22.6Q80.2-21.85 79.97-20.98 79.75-20.1 79.45-19.4L79.45-19.4Q78.25-19.5 77.2-19.63 76.15-19.75 75.15-19.8L75.15-19.8Q74.75-17.65 74.42-15.5 74.1-13.35 73.92-11.6 73.75-9.85 73.75-8.85L73.75-8.85Q73.75-6.75 74.52-6.05 75.3-5.35 76.4-5.35L76.4-5.35Q77.4-5.35 78.2-5.75 79-6.15 79.35-6.7L79.35-6.7 79.85-6.55Q79.55-4.5 78.25-2.98 76.95-1.45 75.15-0.63 73.35 0.2 71.55 0.2ZM90.74 0.3L90.74 0.3Q87.39 0.3 85.22-0.85 83.04-2 81.99-3.8 80.94-5.6 80.94-7.5L80.94-7.5Q80.94-9.35 81.84-11.03 82.74-12.7 84.42-13.8 86.09-14.9 88.39-14.9L88.39-14.9Q88.34-14.45 88.34-14.08 88.34-13.7 88.34-13.7L88.34-13.7Q88.34-10.35 88.99-8.43 89.64-6.5 90.64-5.68 91.64-4.85 92.69-4.85L92.69-4.85Q94.29-4.85 95.54-6.13 96.79-7.4 96.79-9.1L96.79-9.1Q96.79-11 95.17-12.45 93.54-13.9 91.04-15.65L91.04-15.65Q89.64-16.7 88.07-18.03 86.49-19.35 85.39-21.18 84.29-23 84.29-25.5L84.29-25.5Q84.29-28.1 85.52-30.1 86.74-32.1 88.77-33.48 90.79-34.85 93.22-35.58 95.64-36.3 98.04-36.3L98.04-36.3Q100.99-36.3 102.89-35.35 104.79-34.4 105.74-32.9 106.69-31.4 106.69-29.8L106.69-29.8Q106.69-28.3 105.87-26.93 105.04-25.55 103.44-24.7 101.84-23.85 99.49-23.85L99.49-23.85Q99.64-24.55 99.69-25.13 99.74-25.7 99.74-26.15L99.74-26.15Q99.74-28.65 98.67-29.73 97.59-30.8 96.29-30.8L96.29-30.8Q95.04-30.8 93.89-29.88 92.74-28.95 92.74-26.9L92.74-26.9Q92.74-25.15 93.67-23.9 94.59-22.65 96.07-21.7 97.54-20.75 99.19-19.85L99.19-19.85Q100.89-18.95 102.47-17.88 104.04-16.8 105.09-15.35 106.14-13.9 106.14-11.7L106.14-11.7Q106.14-9.4 104.89-7.23 103.64-5.05 101.49-3.38 99.34-1.7 96.57-0.7 93.79 0.3 90.74 0.3ZM120.14 0.35L120.14 0.35Q116.39 0.35 113.94-1.15 111.49-2.65 110.32-5.13 109.14-7.6 109.14-10.4L109.14-10.4Q109.14-13.05 110.12-15.7 111.09-18.35 112.97-20.53 114.84-22.7 117.54-24.03 120.24-25.35 123.74-25.35L123.74-25.35Q127.49-25.35 129.92-23.83 132.34-22.3 133.52-19.8 134.69-17.3 134.69-14.45L134.69-14.45Q134.69-11.85 133.74-9.22 132.79-6.6 130.92-4.42 129.04-2.25 126.34-0.95 123.64 0.35 120.14 0.35ZM121.49-3.9L121.49-3.9Q122.84-3.9 123.74-5.3 124.64-6.7 125.09-8.88 125.54-11.05 125.54-13.3L125.54-13.3Q125.54-15.3 125.17-17.07 124.79-18.85 124.04-19.98 123.29-21.1 122.09-21.1L122.09-21.1Q120.79-21.1 119.87-19.7 118.94-18.3 118.49-16.15 118.04-14 118.04-11.7L118.04-11.7Q118.04-9.7 118.42-7.93 118.79-6.15 119.54-5.03 120.29-3.9 121.49-3.9ZM143.44 0.15L143.44 0.15Q141.59 0.15 140.09-1.33 138.59-2.8 138.59-5.45L138.59-5.45Q138.59-6.75 138.94-8.4 139.29-10.05 139.71-11.75 140.14-13.45 140.49-14.95 140.84-16.45 140.84-17.4L140.84-17.4Q140.84-18.4 140.44-18.98 140.04-19.55 139.39-19.55L139.39-19.55Q138.54-19.55 137.54-18.55L137.54-18.55 137.24-18.75Q137.19-19.55 137.59-20.65 137.99-21.75 138.81-22.78 139.64-23.8 140.94-24.5 142.24-25.2 144.04-25.2L144.04-25.2Q146.69-25.2 147.96-23.68 149.24-22.15 149.24-19.95L149.24-19.95Q149.24-19.15 149.09-18.4L149.09-18.4Q150.14-19.95 151.69-21.53 153.24-23.1 155.11-24.15 156.99-25.2 158.99-25.2L158.99-25.2Q161.34-25.2 162.19-23.7 163.04-22.2 163.04-19.95L163.04-19.95Q163.04-17.85 162.59-15.45 162.14-13.05 161.69-10.83 161.24-8.6 161.24-7.1L161.24-7.1Q161.24-5.1 162.39-5.1L162.39-5.1Q162.99-5.1 163.44-5.48 163.89-5.85 164.04-6.2L164.04-6.2 164.39-6.05Q164.39-4.2 163.36-2.8 162.34-1.4 160.79-0.63 159.24 0.15 157.64 0.15L157.64 0.15Q155.69 0.15 154.19-1.2 152.69-2.55 152.69-5.6L152.69-5.6Q152.69-7.4 153.16-9.5 153.64-11.6 154.09-13.55 154.54-15.5 154.54-16.75L154.54-16.75Q154.54-17.5 154.26-17.93 153.99-18.35 153.29-18.35L153.29-18.35Q152.14-18.35 150.76-17.3 149.39-16.25 148.41-14.5 147.44-12.75 147.44-10.65L147.44-10.65Q147.44-9.3 147.76-8.05 148.09-6.8 148.09-5.35L148.09-5.35Q148.09-2.65 146.69-1.25 145.29 0.15 143.44 0.15ZM175.54 0.45L175.54 0.45Q172.44 0.45 170.39-0.4 168.34-1.25 167.34-2.58 166.34-3.9 166.34-5.25L166.34-5.25Q166.34-7.15 168.04-8.63 169.74-10.1 172.64-10.1L172.64-10.1Q172.64-7.55 173.29-6.03 173.94-4.5 174.96-3.85 175.99-3.2 176.94-3.2L176.94-3.2Q178.09-3.2 178.86-3.88 179.64-4.55 179.64-5.55L179.64-5.55Q179.64-6.95 178.19-8 176.74-9.05 174.44-10.35L174.44-10.35Q173.29-11.05 171.94-11.98 170.59-12.9 169.64-14.23 168.69-15.55 168.69-17.4L168.69-17.4Q168.69-19.35 169.81-20.85 170.94-22.35 172.79-23.38 174.64-24.4 176.79-24.93 178.94-25.45 180.99-25.45L180.99-25.45Q184.84-25.45 186.79-23.9 188.74-22.35 188.74-20.6L188.74-20.6Q188.74-19.1 187.24-17.9 185.74-16.7 182.64-16.7L182.64-16.7Q182.69-19.25 181.59-20.43 180.49-21.6 179.24-21.6L179.24-21.6Q178.34-21.6 177.74-21.05 177.14-20.5 177.14-19.45L177.14-19.45Q177.14-18.25 177.91-17.38 178.69-16.5 179.86-15.83 181.04-15.15 182.29-14.55L182.29-14.55Q183.99-13.75 185.49-12.85 186.99-11.95 187.94-10.8 188.89-9.65 188.89-8L188.89-8Q188.89-5.75 187.06-3.83 185.24-1.9 182.19-0.73 179.14 0.45 175.54 0.45Z" opacity="1" transform="matrix(1,0,0,1,0,0)" fill="#cb1106" class="wordmark-text-0" data-fill-palette-color="primary" id="text-0"></path></svg></g></svg></g></svg></g></svg></g></svg></g></svg></g></svg></g><g mask="url(#c9702d62-f134-44c1-8a4f-b7b6cc6113cd)"><g transform="matrix(3.4978601997146934, 0, 0, 3.4978601997146934, 49.10094151212553, 1)"><svg xmlns="http://www.w3.org/2000/svg" xmlns:xlink="http://www.w3.org/1999/xlink" version="1.1" x="0" y="0" viewBox="7.6 21.9 85 70.1" style="enable-background:new 0 0 100 100;" xml:space="preserve" height="70.1" width="85" class="icon-none" data-fill-palette-color="accent" id="none"><path d="M17.1 80.1C17.1 80.7 16.6 81.1 16.1 81.1 15.5 81.1 15.1 80.6 15.1 80.1S15.6 79.1 16.1 79.1C16.7 79.1 17.1 79.5 17.1 80.1M22.1 81.1C22.7 81.1 23.1 80.7 23.1 80.1S22.7 79.1 22.1 79.1 21.1 79.5 21.1 80.1 21.5 81.1 22.1 81.1M28.1 79.1C27.5 79.1 27.1 79.5 27.1 80.1S27.5 81.1 28.1 81.1 29.1 80.7 29.1 80.1 28.7 79.1 28.1 79.1M34.1 79.1C33.5 79.1 33.1 79.5 33.1 80.1S33.5 81.1 34.1 81.1 35.1 80.7 35.1 80.1 34.7 79.1 34.1 79.1M16.1 75.1C16.7 75.1 17.1 74.7 17.1 74.1S16.7 73.1 16.1 73.1 15.1 73.5 15.1 74.1 15.5 75.1 16.1 75.1M22.1 75.1C22.7 75.1 23.1 74.7 23.1 74.1S22.7 73.1 22.1 73.1 21.1 73.5 21.1 74.1 21.5 75.1 22.1 75.1M28.1 73.1C27.5 73.1 27.1 73.5 27.1 74.1S27.5 75.1 28.1 75.1 29.1 74.7 29.1 74.1 28.7 73.1 28.1 73.1M34.1 73.1C33.5 73.1 33.1 73.5 33.1 74.1S33.5 75.1 34.1 75.1 35.1 74.7 35.1 74.1 34.7 73.1 34.1 73.1M16.1 69.1C16.7 69.1 17.1 68.7 17.1 68.1S16.7 67.1 16.1 67.1 15.1 67.5 15.1 68.1 15.5 69.1 16.1 69.1M22.1 69.1C22.7 69.1 23.1 68.7 23.1 68.1S22.7 67.1 22.1 67.1 21.1 67.5 21.1 68.1 21.5 69.1 22.1 69.1M28.1 67.1C27.5 67.1 27.1 67.5 27.1 68.1S27.5 69.1 28.1 69.1 29.1 68.7 29.1 68.1 28.7 67.1 28.1 67.1M16.1 63.1C16.7 63.1 17.1 62.7 17.1 62.1S16.7 61.1 16.1 61.1 15.1 61.5 15.1 62.1 15.5 63.1 16.1 63.1M22.1 63.1C22.7 63.1 23.1 62.7 23.1 62.1S22.7 61.1 22.1 61.1 21.1 61.5 21.1 62.1 21.5 63.1 22.1 63.1M16.1 57.1C16.7 57.1 17.1 56.7 17.1 56.1S16.7 55.1 16.1 55.1 15.1 55.5 15.1 56.1 15.5 57.1 16.1 57.1M91.6 90H8.6C8 90 7.6 90.4 7.6 91S8 92 8.6 92H91.6C92.2 92 92.6 91.6 92.6 91S92.2 90 91.6 90M9.1 48H9V42.3L50 21.9 91 42.3V43H91.1V88H9.1zM49 86V68H41V86zM59 86V68H51V86zM50 24.1L11.1 43.5V86H39V66H61V86H89.1V48H89V43.5zM84.1 81.1C84.7 81.1 85.1 80.6 85.1 80.1S84.6 79.1 84.1 79.1C83.5 79.1 83.1 79.6 83.1 80.1S83.6 81.1 84.1 81.1M78.1 81.1C78.7 81.1 79.1 80.6 79.1 80.1S78.6 79.1 78.1 79.1C77.5 79.1 77.1 79.6 77.1 80.1S77.6 81.1 78.1 81.1M72.1 79.1C71.5 79.1 71.1 79.6 71.1 80.1S71.6 81.1 72.1 81.1C72.7 81.1 73.1 80.6 73.1 80.1S72.7 79.1 72.1 79.1M66.1 79.1C65.5 79.1 65.1 79.6 65.1 80.1S65.6 81.1 66.1 81.1C66.7 81.1 67.1 80.6 67.1 80.1S66.7 79.1 66.1 79.1M84.1 75.1C84.7 75.1 85.1 74.6 85.1 74.1S84.6 73.1 84.1 73.1C83.5 73.1 83.1 73.6 83.1 74.1S83.6 75.1 84.1 75.1M78.1 75.1C78.7 75.1 79.1 74.6 79.1 74.1S78.6 73.1 78.1 73.1C77.5 73.1 77.1 73.6 77.1 74.1S77.6 75.1 78.1 75.1M72.1 73.1C71.5 73.1 71.1 73.6 71.1 74.1S71.6 75.1 72.1 75.1C72.7 75.1 73.1 74.6 73.1 74.1S72.7 73.1 72.1 73.1M66.1 73.1C65.5 73.1 65.1 73.6 65.1 74.1S65.6 75.1 66.1 75.1C66.7 75.1 67.1 74.6 67.1 74.1S66.7 73.1 66.1 73.1M84.1 69.1C84.7 69.1 85.1 68.6 85.1 68.1S84.6 67.1 84.1 67.1C83.5 67.1 83.1 67.6 83.1 68.1S83.6 69.1 84.1 69.1M78.1 69.1C78.7 69.1 79.1 68.6 79.1 68.1S78.6 67.1 78.1 67.1C77.5 67.1 77.1 67.6 77.1 68.1S77.6 69.1 78.1 69.1M72.1 67.1C71.5 67.1 71.1 67.6 71.1 68.1S71.6 69.1 72.1 69.1C72.7 69.1 73.1 68.6 73.1 68.1S72.7 67.1 72.1 67.1M84.1 63.1C84.7 63.1 85.1 62.6 85.1 62.1S84.6 61.1 84.1 61.1C83.5 61.1 83.1 61.6 83.1 62.1S83.6 63.1 84.1 63.1M78.1 63.1C78.7 63.1 79.1 62.6 79.1 62.1S78.6 61.1 78.1 61.1C77.5 61.1 77.1 61.6 77.1 62.1S77.6 63.1 78.1 63.1M84.1 57.1C84.7 57.1 85.1 56.6 85.1 56.1S84.6 55.1 84.1 55.1C83.5 55.1 83.1 55.6 83.1 56.1S83.6 57.1 84.1 57.1M34 51H24V43H76V51zM66 49H74V45H66zM56 49H64V45H56zM46 49H54V45H46zM36 49H44V45H36zM34 49V45H26V49z" fill="#f64d08" data-fill-palette-color="accent"></path></svg></g></g></svg></g><defs></defs></svg><rect width="395.52" height="247.2" fill="none" stroke="none" visibility="hidden"></rect></g></svg></g></svg>